<?xml version="1.0" encoding="UTF-8"?>
<svg id="Layer_1" xmlns="http://www.w3.org/2000/svg" version="1.1" viewBox="0 0 2711.87 2160">
  <!-- Generator: Adobe Illustrator 29.0.1, SVG Export Plug-In . SVG Version: 2.1.0 Build 192)  -->
  <path fill="white" d="M2711.48,163.46c-9.67-72.81-48.01-131.87-118.38-157.01L503.78,0c-126.85,34.67-156.94,144.2-143.66,264.11h180.05v-84.73h1991.22v1440.45H720.23v180.06h518.99l-42.37,180.05h-201.24v180.06h1080.34v-180.06h-201.24l-42.37-180.05h749.44c71.85,0,130.09-58.25,130.09-130.1v-68.23c-.01-452.51-.39-950.2-.39-1438.1ZM1387.5,1979.94l41.75-175.38,212.88.19,41.93,175.19h-296.56Z"/>
  <path fill="white" d="M816.22,804.28l.17-360.11H95.99l.06,360.16-95.38-.05v455.44H0v116.44c0,35.13,28.48,63.61,63.62,63.61h297.16v720.23h180.06v-720.23h283.13c35.13,0,63.61-28.48,63.61-63.61v-570.4l-71.36-1.48ZM276.05,624.22h360.11v180.06h-360.11v-180.06ZM720.9,1259.72H180.73v-275.38h540.17v275.38Z"/>
</svg>
